<svg xmlns="http://www.w3.org/2000/svg" viewBox="0 0 800 1200">
  <!-- Background -->
  <defs>
    <linearGradient id="headerGradient" x1="0%" y1="0%" x2="100%" y2="0%">
      <stop offset="0%" style="stop-color:#2563eb;stop-opacity:1" />
      <stop offset="100%" style="stop-color:#3b82f6;stop-opacity:1" />
    </linearGradient>
    <filter id="shadow">
      <feDropShadow dx="0" dy="4" stdDeviation="4" flood-opacity="0.15"/>
    </filter>
  </defs>
  
  <!-- Main Background -->
  <rect width="800" height="1200" fill="#ffffff"/>
  
  <!-- Navigation Bar -->
  <rect x="0" y="0" width="800" height="80" fill="#ffffff" filter="url(#shadow)"/>
  <rect x="40" y="30" width="100" height="20" rx="4" fill="#e5e7eb"/>
  <rect x="500" y="30" width="60" height="20" rx="4" fill="#e5e7eb"/>
  <rect x="580" y="30" width="60" height="20" rx="4" fill="#e5e7eb"/>
  <rect x="660" y="30" width="60" height="20" rx="4" fill="#e5e7eb"/>
  
  <!-- Hero Section -->
  <rect x="0" y="80" width="800" height="400" fill="url(#headerGradient)"/>
  <rect x="40" y="160" width="400" height="40" rx="4" fill="#ffffff" opacity="0.9"/>
  <rect x="40" y="220" width="300" height="20" rx="4" fill="#ffffff" opacity="0.7"/>
  <rect x="40" y="320" width="160" height="50" rx="25" fill="#ffffff"/>
  
  <!-- Service Cards -->
  <g transform="translate(40, 520)">
    <!-- Card 1 -->
    <rect width="220" height="260" rx="8" fill="#ffffff" filter="url(#shadow)"/>
    <rect x="20" y="20" width="180" height="120" rx="4" fill="#f3f4f6"/>
    <rect x="20" y="160" width="140" height="20" rx="4" fill="#e5e7eb"/>
    <rect x="20" y="190" width="180" height="40" rx="4" fill="#f3f4f6"/>
  </g>
  
  <g transform="translate(290, 520)">
    <!-- Card 2 -->
    <rect width="220" height="260" rx="8" fill="#ffffff" filter="url(#shadow)"/>
    <rect x="20" y="20" width="180" height="120" rx="4" fill="#f3f4f6"/>
    <rect x="20" y="160" width="140" height="20" rx="4" fill="#e5e7eb"/>
    <rect x="20" y="190" width="180" height="40" rx="4" fill="#f3f4f6"/>
  </g>
  
  <g transform="translate(540, 520)">
    <!-- Card 3 -->
    <rect width="220" height="260" rx="8" fill="#ffffff" filter="url(#shadow)"/>
    <rect x="20" y="20" width="180" height="120" rx="4" fill="#f3f4f6"/>
    <rect x="20" y="160" width="140" height="20" rx="4" fill="#e5e7eb"/>
    <rect x="20" y="190" width="180" height="40" rx="4" fill="#f3f4f6"/>
  </g>
  
  <!-- Pricing Table -->
  <g transform="translate(40, 820)">
    <rect width="720" height="320" rx="8" fill="#ffffff" filter="url(#shadow)"/>
    <line x1="240" y1="0" x2="240" y2="320" stroke="#e5e7eb" stroke-width="1"/>
    <line x1="480" y1="0" x2="480" y2="320" stroke="#e5e7eb" stroke-width="1"/>
    
    <!-- Pricing Headers -->
    <rect x="20" y="40" width="200" height="40" rx="4" fill="#f3f4f6"/>
    <rect x="260" y="40" width="200" height="40" rx="4" fill="#f3f4f6"/>
    <rect x="500" y="40" width="200" height="40" rx="4" fill="#f3f4f6"/>
    
    <!-- Pricing Features -->
    <rect x="20" y="100" width="180" height="20" rx="4" fill="#e5e7eb"/>
    <rect x="260" y="100" width="180" height="20" rx="4" fill="#e5e7eb"/>
    <rect x="500" y="100" width="180" height="20" rx="4" fill="#e5e7eb"/>
    
    <rect x="20" y="140" width="180" height="20" rx="4" fill="#e5e7eb"/>
    <rect x="260" y="140" width="180" height="20" rx="4" fill="#e5e7eb"/>
    <rect x="500" y="140" width="180" height="20" rx="4" fill="#e5e7eb"/>
    
    <rect x="20" y="180" width="180" height="20" rx="4" fill="#e5e7eb"/>
    <rect x="260" y="180" width="180" height="20" rx="4" fill="#e5e7eb"/>
    <rect x="500" y="180" width="180" height="20" rx="4" fill="#e5e7eb"/>
    
    <!-- CTA Buttons -->
    <rect x="40" y="240" width="160" height="40" rx="20" fill="#2563eb"/>
    <rect x="280" y="240" width="160" height="40" rx="20" fill="#2563eb"/>
    <rect x="520" y="240" width="160" height="40" rx="20" fill="#2563eb"/>
  </g>
</svg>
